{"title":"Topsy.Turvy.1999.BluRay.720p.x264.DTS.Kreved","uid":6513522,"size":7287060334,"categoryP":"video","categoryS":"hd___movies","magnet":"?xt=urn:btih:8b9ef9d6526a138590c0f1b8386452c556eba5bd&amp;dn=Topsy.Turvy.1999.BluRay.720p.x264.DTS.Kreved&amp;tr=udp%3A%2F%2Ftracker.openbittorrent.com%3A80&amp;tr=udp%3A%2F%2Fopen.demonii.com%3A1337&amp;tr=udp%3A%2F%2Ftracker.coppersurfer.tk%3A6969&amp;tr=udp%3A%2F%2Fexodus.desync.com%3A6969","seeders":0,"leechers":1,"uploader":"TPBAgri","files":-1,"time":1309728989,"description":"Original title: Topsy-Turvy\nReleased: 1999\nCountry: United Kingdom\nStudio: Goldwyn Films, Newmarket Capital Group LLC, The Greenlight Fund, Thin Man Films\nGenre: drama, comedy, biography, music\nDirector: Mike Leigh / Mike Leigh\nScenario: Mike Leigh / Mike Leigh\nProducer: Simon Channing-Williams, Georgina Lowe\nOperator: Dick Pope\nComposer: Carl Davis, Jacques Offenbach, Arthur Sullivan\nArtist: Eve Stewart, Helen Scott, Lindy Hemming\nInstallation: Robin Seyls\nCast: Korduner Allan (Sir Arthur Sullivan), Dexter Fletcher (Louis), Suki Smith (Clothilde), Roger Heathcott (Banton), Wendy Nottinhem (Helen Lenoir), Stephen Bednarchik (Frank Cellier), Geoffrey Hutchings (Armourer), Timothy Spall (Richard Temple), Francis Lee (Butt), William Ninan (Cook), Adam Searle (Shrimp), Martin Savage (George Grossmith)\n\nAbout movie: 1884, London. Funny Opera Gilbert, author of the libretto and composer Sullivan enjoyed a huge success. But the new job fell through. In a joint work of two geniuses of a crisis. Break out of it helps to visit Gilbert and his wife, a Japanese exhibition in London. Funny gags, just captured the era details, brilliant humor - Mike Lee is resting on the glory and offers to join. ...\n\n\nFile info:\nQuality: BDRip 720p\nDuration: 02:40:57\n(Translation): 1) Two-Russian voice-over, and 2) the original English track\nSubtitles: Russian, English (2 species)\nFormat: MKV\n\nVideo: AVC &lt;a class=&quot;__cf_email__&quot; href=&quot;/cdn-cgi/l/email-protection&quot; data-cfemail=&quot;2e664749466e621a001f&quot;&gt;[email&amp;#160;protected]&lt;/a&gt;&lt;script cf-hash='f9e31' type=&quot;text/javascript&quot;&gt;\n/* &lt;![CDATA[ */!function(){try{var t=&quot;currentScript&quot;in document?document.currentScript:function(){for(var t=document.getElementsByTagName(&quot;script&quot;),e=t.length;e--;)if(t[e].getAttribute(&quot;cf-hash&quot;))return t[e]}();if(t&amp;&amp;t.previousSibling){var e,r,n,i,c=t.previousSibling,a=c.getAttribute(&quot;data-cfemail&quot;);if(a){for(e=&quot;&quot;,r=parseInt(a.substr(0,2),16),n=2;a.length-n;n+=2)i=parseInt(a.substr(n,2),16)^r,e+=String.fromCharCode(i);e=document.createTextNode(e),c.parentNode.replaceChild(e,c)}}}catch(u){}}();/* ]]&gt; */&lt;/script&gt;, ReFrames: 5; 720p; 1280x720 (16:9); 4324 Kbps; 23.976 fps; 0.196 bpp\nAudio 1: AC3; 192 Kbps; 2 ch; 48 000 Hz; CBR; 16-bit\nAudio 2: DTS; 1509 Kbps; 6 ch; 48 000 Hz; CBR; 24-bit\n\n\n\nFormat / Info: Advanced Video Codec\nFormat profile: &lt;a class=&quot;__cf_email__&quot; href=&quot;/cdn-cgi/l/email-protection&quot; data-cfemail=&quot;7c34151b143c3048524d&quot;&gt;[email&amp;#160;protected]&lt;/a&gt;&lt;script cf-hash='f9e31' type=&quot;text/javascript&quot;&gt;\n/* &lt;![CDATA[ */!function(){try{var t=&quot;currentScript&quot;in document?document.currentScript:function(){for(var t=document.getElementsByTagName(&quot;script&quot;),e=t.length;e--;)if(t[e].getAttribute(&quot;cf-hash&quot;))return t[e]}();if(t&amp;&amp;t.previousSibling){var e,r,n,i,c=t.previousSibling,a=c.getAttribute(&quot;data-cfemail&quot;);if(a){for(e=&quot;&quot;,r=parseInt(a.substr(0,2),16),n=2;a.length-n;n+=2)i=parseInt(a.substr(n,2),16)^r,e+=String.fromCharCode(i);e=document.createTextNode(e),c.parentNode.replaceChild(e,c)}}}catch(u){}}();/* ]]&gt; */&lt;/script&gt;\nFormat settings, CABAC: Yes\nFormat settings, ReFrames: 5 frames\nFormat settings, GOP: M = 1, N = 59\nCodec ID: V_MPEG4/ISO/AVC\nDuration: 2h 40mn\nBit rate: 4324 Kbps\nWidth: 1280 pixels\nHeight: 720 pixels\nDisplay aspect ratio: 16:9\nFrame rate: 23.976 fps\n\n\nAudio # 1\nID: 2\nFormat: AC-3\nFormat / Info: Audio Coding 3\nMode extension: CM (complete main)\nCodec ID: A_AC3\nDuration: 2h 40mn\nBit rate mode: Constant\nBit rate: 192 Kbps\nChannel (s): 2 channels\nChannel positions: Front: L R\nSampling rate: 48.0 KHz\nBit depth: 16 bits\nCompression mode: Lossy\nStream size: 221 MiB (3%)\nTitle: 2VO\nLanguage: Russian\n\nAudio # 2\nID: 3\nFormat: DTS\nFormat / Info: Digital Theater Systems\nCodec ID: A_DTS\nDuration: 2h 40mn\nBit rate mode: Constant\nBit rate: 1510 Kbps\nChannel (s): 6 channels\nChannel positions: Front: L C R, Side: L R, LFE\nSampling rate: 48.0 KHz\nBit depth: 24 bits\nCompression mode: Lossy\nDelay relative to video: 11ms\nStream size: 1.70 GiB (25%)\nTitle: Original\nLanguage: English\n\nText # 1\nID: 4\nFormat: VobSub\nCodec ID: S_VOBSUB\nCodec ID / Info: The same subtitle format used on DVDs\nLanguage: Russian\n\nText # 2\nID: 5\nFormat: VobSub\nCodec ID: S_VOBSUB\nCodec ID / Info: The same subtitle format used on DVDs\nLanguage: English\n\nText # 3\nID: 6\nFormat: UTF-8\nCodec ID: S_TEXT/UTF8\nCodec ID / Info: UTF-8 Plain Text\nLanguage: English\n","torrent":{"xt":"urn:btih:8b9ef9d6526a138590c0f1b8386452c556eba5bd","amp;dn":"Topsy.Turvy.1999.BluRay.720p.x264.DTS.Kreved","amp;tr":["udp%3A%2F%2Ftracker.openbittorrent.com%3A80","udp%3A%2F%2Fopen.demonii.com%3A1337","udp%3A%2F%2Ftracker.coppersurfer.tk%3A6969","udp%3A%2F%2Fexodus.desync.com%3A6969"],"infoHash":"8b9ef9d6526a138590c0f1b8386452c556eba5bd","infoHashBuffer":{"type":"Buffer","data":[139,158,249,214,82,106,19,133,144,192,241,184,56,100,82,197,86,235,165,189]},"announce":[],"urlList":[]}}